<!-- Official BRUNT logo sourced from bruntworkwear.com. Saved locally to avoid hotlinking. Do not modify fill colors without brand approval. -->
<svg width="58" height="36" viewBox="0 0 58 36" fill="none" xmlns="http://www.w3.org/2000/svg">
<path d="M56.9848 15.205H56.0664L55.9053 15.3488V21.7053L56.4531 23.3025H52.2964L52.8442 21.7053V15.3488L52.6831 15.205H51.7003L50.0731 15.7321V12.6975H57.9998V9.19982C57.9998 9.19982 40.0036 2.68353 37.8125 1.85302C35.6214 1.02252 31.9642 0.016326 28.9353 0.00017535C25.9064 -0.0156166 22.2653 1.03849 20.0581 1.85302L-0.000244141 9.19982V12.6975H6.4442L8.16809 14.3585V16.4029L6.99198 17.5368L8.3292 18.8305V21.4817L6.4442 23.3025H-0.000244141V26.8002C-0.000244141 26.8002 17.8831 33.3165 20.0742 34.147C22.2653 34.9775 25.9225 35.9837 28.9514 35.9998C31.9803 36.0156 35.6214 34.9455 37.8286 34.147C40.0359 33.3484 57.9998 26.7842 57.9998 26.7842V15.5085L56.9848 15.205ZM20.042 23.3504H18.3986L16.8359 21.8331V19.8527L16.6748 19.693H15.3375L15.1764 19.8527V22.0407L15.5631 23.2546H11.8092L12.1959 22.0407V13.8634L11.8092 12.6496H18.6242L20.6542 14.6141V17.4091L19.5264 18.9104L19.5586 19.9166L20.2675 20.7471L21.202 21.0505L20.042 23.3504ZM33.3498 21.338L31.3198 23.3025H26.6959L24.6498 21.338L24.8109 20.5874V13.9273L24.4242 12.7135H28.2586L27.872 13.9273V19.9006L28.1942 20.5075L28.8225 20.8109H29.4509L30.0792 20.5075L30.3853 19.9006V13.9273L29.9986 12.7135H33.6075L33.2048 13.9273V20.5874L33.3498 21.338ZM46.3998 23.3025H43.1131L43.4192 22.0887V21.7852L40.4386 17.4729L40.1164 16.7223L40.197 17.4729V22.0887L40.5836 23.3025H37.1359L37.5225 22.0887V13.9114L37.0553 12.6975H40.4225L43.1614 16.6744L43.4836 17.3931L43.4031 16.6584V13.8954L43.0164 12.6816H46.3998L46.0131 13.8954V22.0727L46.3998 23.3025Z" fill="#C74F1F"></path>
<path d="M16.6751 15.0928H15.3379L15.1768 15.2365V17.1371L15.3379 17.2808H16.6751L17.3034 16.9774L17.6095 16.3705V15.9872L17.3034 15.3803L16.6751 15.0928Z" fill="#C74F1F"></path>
<path d="M4.33354 16.6428L4.80076 16.4192L5.04243 15.956V15.6526L4.80076 15.2054L4.33354 14.9658H3.01243L2.85132 15.1255V16.4831L3.01243 16.6428H4.33354Z" fill="#C74F1F"></path>
<path d="M2.85132 20.7309L3.07687 20.9545H4.25298L4.88132 20.651L5.12298 20.2038V19.6608L4.88132 19.2136L4.25298 18.9102H3.01243L2.85132 19.0539V20.7309Z" fill="#C74F1F"></path>
</svg>
